inDegrees=yes
name=ik_example_mov
DataType=double
version=3
OpenSimVersion=4.5
endheader
time	pelvis_tilt	pelvis_list	pelvis_rotation	pelvis_tx	pelvis_ty	pelvis_tz	hip_flexion_r	hip_adduction_r	hip_rotation_r	knee_angle_r	knee_angle_r_beta	ankle_angle_r	subtalar_angle_r	mtp_angle_r	hip_flexion_l	hip_adduction_l	hip_rotation_l	knee_angle_l	knee_angle_l_beta	ankle_angle_l	subtalar_angle_l	mtp_angle_l	lumbar_extension	lumbar_bending	lumbar_rotation	arm_flex_r	arm_add_r	arm_rot_r	elbow_flex_r	pro_sup_r	wrist_flex_r	wrist_dev_r	arm_flex_l	arm_add_l	arm_rot_l	elbow_flex_l	pro_sup_l	wrist_flex_l	wrist_dev_l
10.78552389144897	-7.827481034603108e-14	0	0	0	0.93	0	42.86653840731466	-1.839116672330497	8.209871769645181	38.95681670605129	0.6799247176165271	-4.998621283329112	0	0	0	0	0	3.194937399697952e-39	-6.473349389144714e-41	0	0	0	0	0	0	0	0	0	0	0	0	0	0	0	0	0	0	0	0
10.79250192642212	-7.827481034603112e-14	0	0	0	0.93	0	42.87884273176891	-1.827220073328753	8.24566620498001	39.24095621163625	0.6848838875239732	-4.998631701554227	0	0	0	0	0	0	1.645813232549067e-40	0	0	0	0	0	0	0	0	0	1.01036142121705e-37	0	0	0	0	0	0	0	0	0	0
10.80946969985962	-7.827481034603108e-14	0	0	0	0.93	0	42.88661370853588	-1.808769185679107	8.282373444801747	39.45299625825567	0.6885846844835645	-4.998641291043115	0	0	0	0	0	0	0	0	0	0	0	0	0	0	0	0	0	0	0	0	0	0	0	0	0	0	0
10.81495404243469	-7.827481034603108e-14	0	0	0	0.93	0	42.88954840299277	-1.781201271276545	8.299689812839587	39.5908068877031	0.6909899337116681	-4.9986467514609	0	0	0	0	0	0	0	0	0	0	0	0	0	0	0	0	0	0	0	0	0	0	0	0	0	0	0
10.82255363464355	-7.827481034603108e-14	0	0	0	0.93	0	42.86030481790724	-1.676705478227605	8.195007156330158	39.27453066286504	0.685469872242466	-4.998654708088614	0	0	0	0	0	3.748679894167142e-38	0	0	0	0	0	0	0	0	0	0	0	0	0	0	0	0	0	0	0	0	0
10.83103060722351	-7.827481034603108e-14	0	0	0	0.93	0	42.85962835231756	-1.680907002324758	8.160174781396126	39.43088126682127	0.688198705068984	-4.998659474596725	0	0	0	0	0	0	0	0	0	0	0	0	0	0	0	0	9.417390510369458e-39	0	0	0	0	0	0	0	1.031715179229592e-37	0	0
10.8376145362854	-7.827481034603108e-14	0	0	0	0.93	0	42.86026906716536	-1.689629265083693	8.12874184792792	39.55391103723275	0.6903459796406369	-4.9986636226051	0	0	0	0	0	0	0	0	0	0	0	0	0	0	0	0	0	0	0	0	0	0	0	0	0	0	0
10.85457134246826	-7.827481034603117e-14	0	0	0	0.93	0	42.86339297889963	-1.718221900147067	8.081948699368482	39.72483462701368	0.6933291590516423	-4.998667887947701	0	0	0	0	0	0	0	0	0	0	0	0	0	0	0	0	0	0	0	0	0	0	0	0	0	0	0
10.86068487167358	3.735091324664902e-12	-1.219577140569897e-13	4.554152640441152e-13	1.325937692169583e-18	0.93	8.653751461081303e-20	42.86003508616258	-1.751345356573829	8.031128466245583	39.84841483753372	0.6954860406155456	-4.998671214158225	-6.217368470624932e-17	-4.116913226546211e-15	-2.292631967067483e-13	1.223773691206364e-13	0	2.975915838158939e-05	5.19395296389098e-07	7.640740150685233e-14	-6.395427727189528e-18	-2.345530885715053e-15	5.349737237429744e-17	0	7.255877824613074e-17	5.284809191535854e-13	2.547448607285977e-14	1.264751841299883e-16	2.975915837391536e-05	2.976137523526027e-05	-1.328908180102413e-18	-1.048100577325284e-13	-5.197080672077539e-17	2.547951077075278e-14	5.665976726221257e-17	2.975811130054998e-05	2.975658402288298e-05	5.196845189646758e-19	-1.048043171323314e-13
10.86628890037537	-7.827481034603318e-14	-4.164535897337898e-17	-3.879330088846317e-29	-2.597491236818076e-19	0.93	7.768868311305115e-19	42.26586833094652	-1.742589129192735	8.029050728099433	39.24417181732522	0.6849400104306919	-4.998691877175069	-3.482937178893814e-17	7.567867379317455e-19	-1.257215430937741e-29	-3.08491400898549e-18	0	0	-6.207672631487189e-17	-1.838051834391964e-17	-1.624392046062668e-16	-5.572900561200485e-17	-1.197163351700966e-19	-2.606667689678562e-34	1.2854023953105e-28	1.709331102697735e-19	-1.251548857665729e-19	-4.175662764216253e-17	0	0	-1.166450366737604e-18	-1.592863577043518e-16	2.916188646537934e-17	-4.563109886729093e-17	-9.247779336589591e-17	0	0	1.168146714487358e-17	2.831327271505871e-17
10.88923835754395	-7.827481034602466e-14	0	0	0	0.93	0	40.98606476797434	-1.7422423213556	7.99606460061974	37.93756362038287	0.6621353953605013	-4.99871133219236	0	0	0	0	0	0	0	0	0	0	0	0	0	0	0	0	0	0	0	0	0	0	0	0	0	0	0
10.89472341537476	-7.827481034603133e-14	-8.71629389804601e-27	1.230338503063667e-16	-1.856209875330179e-19	0.93	-8.958810171767067e-21	40.98057196014206	-1.77267612722669	7.956537281476703	38.04214123800609	0.6639606191119181	-4.99871360131465	7.037302357529463e-15	3.93574229150188e-13	1.154120933312295e-16	2.95046915566576e-15	-1.162425192362248e-11	3.573792285436223e-05	6.237458618948664e-07	-1.950942094384632e-13	-1.686875298127013e-14	9.980452392664751e-16	1.752019041671821e-10	-1.017501692154702e-10	2.943043389776027e-12	-4.056240421377775e-13	3.704366093066311e-13	-1.596760599244044e-13	3.579087109307871e-05	3.579087112015415e-05	-4.492612920146128e-15	8.095020007816282e-13	5.039467964386937e-14	1.253292790175099e-13	-1.618875510010875e-13	3.579087109175413e-05	3.579087112015415e-05	-1.598909128104795e-14	6.955220336938143e-13
10.90070581436157	-7.827481034603108e-14	0	0	0	0.93	0	40.97503631019057	-1.805819063267283	7.889699226670414	38.16852178477415	0.6661663757634914	-4.998716708812836	0	0	0	0	0	0	0	0	0	0	0	0	0	0	0	0	0	0	0	0	0	0	0	0	0	0	0
10.90626335144043	-7.827481034603108e-14	0	0	0	0.93	0	40.9782779448243	-1.807634198220412	7.859591347889053	38.20024158486584	0.6667199907131658	-4.998717959218965	0	0	0	0	0	0	0	0	0	0	0	0	0	0	0	0	0	0	0	0	0	0	0	0	0	0	0
10.91922736167908	-7.827481034603108e-14	0	0	0	0.93	0	40.96656235721147	-1.822408436657891	7.828729646964828	37.86305091366233	0.6608349032936548	-4.998730197145205	0	0	0	0	0	1.013517727555379e-39	0	0	0	0	0	0	0	0	0	0	0	0	0	0	0	0	0	0	0	0	0
10.92682313919067	-7.827481034478052e-14	-5.936016094160455e-20	5.240892668826446e-25	4.256575951629356e-22	0.93	-1.424900899092223e-22	40.94344644377582	-1.850798949078884	7.811164887265853	37.45513095134925	0.6537153568666731	-4.998743348243998	3.499588429131195e-17	1.244475034233314e-18	-1.629167306054915e-35	4.1988890382441e-28	9.380297211289266e-24	0	-3.048532851984629e-17	3.100474096884775e-17	-6.24067530562633e-17	1.909605224404623e-17	2.487965641326151e-14	2.039812483476801e-13	1.048840825042746e-14	1.319339529250788e-16	2.921509472834719e-17	-4.4985781883883e-17	0	0	5.725161436030914e-20	1.453830771841149e-18	-1.341597559030493e-17	7.492297926903129e-18	2.269694805338708e-17	0	0	-1.308221671286884e-19	1.964400633915414e-18
10.93930625915527	-7.827481034603738e-14	-4.378012893347898e-27	-1.247612479096993e-18	4.812392385070866e-19	0.93	6.479982775345449e-20	40.94569671756723	-1.884467281574768	7.770475511354505	37.18135885472649	0.6489371323805252	-4.998749511231216	3.843518927732727e-14	-1.339141568578527e-13	1.049955352469827e-16	2.39425611732966e-16	3.568781626587574e-13	2.971344959475244e-05	5.185976998215035e-07	2.349262703658602e-13	1.230993285222535e-12	-1.391997925770947e-15	1.976855712819137e-11	-2.821412957418983e-12	2.540574006999633e-12	2.343641551915058e-13	3.529290169642513e-14	-3.7294931192425e-13	2.972193908433492e-05	2.972193912692377e-05	-1.769161695743138e-21	5.939664001350605e-21	1.119402387624926e-13	1.325715229317843e-13	-1.984578108435773e-13	2.972193908483403e-05	2.972193912692376e-05	-2.1196720991516e-20	-6.723134133986128e-22
10.9457893371582	-7.827481034603117e-14	0	0	0	0.93	0	40.94033713673399	-1.918698284155125	7.729297517156354	37.04641171125149	0.6465818604107253	-4.998752567227925	0	0	0	0	0	0	0	0	0	0	0	0	0	0	0	0	0	0	0	0	0	0	0	0	0	0	0
10.95177006721497	-7.827481034603108e-14	0	0	0	0.93	0	40.93915640962707	-1.948856175845645	7.7021337471647	37.0395548130796	0.6464621849611519	-4.998752752734741	0	0	0	0	0	0	0	0	0	0	0	0	0	0	0	0	0	0	0	0	0	0	0	0	0	0	0
10.96984171867371	-7.827481034603108e-14	0	0	0	0.93	0	40.93250826314195	-1.992935477270114	7.657471256439602	37.06933919649238	0.6469820205173812	-4.998753704719578	0	0	0	0	0	0	0	0	0	0	0	0	0	0	0	0	0	0	0	0	0	0	0	0	0	0	0
10.99080181121826	-7.827481034603108e-14	0	0	0	0.93	0	40.93880784208133	-1.999085224500604	7.659284440301001	37.13941002000399	0.6482049870972426	-4.998756946016509	0	0	0	0	0	0	0	0	0	0	0	0	0	0	0	0	0	0	0	0	0	0	0	0	0	0	0
11.00040078163147	-7.827481034603045e-14	-1.334508365378798e-27	-3.88461679222754e-27	-1.807524824486313e-21	0.93	4.335522764004731e-21	40.94228595692954	-1.998817396340676	7.675813225118302	37.21539960715633	0.6495312555902821	-4.998760156602317	2.957560654572387e-18	1.300440270166e-19	3.905717519054385e-17	7.518716928188387e-17	3.506455575361432e-19	0	-7.483231088451023e-19	1.175743646581952e-17	5.789708311025086e-20	1.499046497743452e-20	-4.869053974378043e-17	-3.183287081446103e-17	-1.377057459613893e-17	-7.940223658744055e-18	-6.363677599848307e-18	-1.528955718669424e-17	0	0	-1.508023680312592e-24	-4.100416108885698e-22	-4.339156309247166e-18	2.771531539725707e-18	-1.622391632929297e-17	0	0	-5.738571850367645e-25	-1.744925775563304e-22
11.01287341117859	-7.827481034603108e-14	0	0	0	0.93	0	40.94659897871715	-1.998223520497021	7.687865956844135	37.29204541092194	0.6508689772238295	-4.998763424926365	0	0	0	0	0	0	0	0	0	0	0	0	0	0	0	0	0	0	0	0	0	0	0	0	0	0	0
